<svg width="25" height="24" viewBox="0 0 25 24" fill="none" xmlns="http://www.w3.org/2000/svg">
<path d="M18.2293 12.0002C19.7488 12.0002 21.206 12.5555 22.2805 13.544C23.3549 14.5325 23.9585 15.8731 23.9585 17.2711C23.9585 18.669 23.3549 20.0096 22.2805 20.9981C21.206 21.9866 19.7488 22.5419 18.2293 22.5419C16.7099 22.5419 15.2526 21.9866 14.1782 20.9981C13.1038 20.0096 12.5002 18.669 12.5002 17.2711C12.5002 15.8731 13.1038 14.5325 14.1782 13.544C15.2526 12.5555 16.7099 12.0002 18.2293 12.0002ZM18.2293 13.9169L18.1356 13.9246C18.0315 13.942 17.9357 13.9883 17.8609 14.0571C17.7861 14.1259 17.7358 14.2141 17.7168 14.3098L17.7085 14.3961V16.7919H15.1022L15.0085 16.8005C14.9044 16.818 14.8086 16.8642 14.7338 16.9331C14.659 17.0019 14.6088 17.09 14.5897 17.1858L14.5814 17.272L14.5897 17.3583C14.6088 17.454 14.659 17.5421 14.7338 17.611C14.8086 17.6798 14.9044 17.726 15.0085 17.7435L15.1022 17.7512H17.7085V20.1499L17.7168 20.2361C17.7358 20.3319 17.7861 20.42 17.8609 20.4888C17.9357 20.5577 18.0315 20.6039 18.1356 20.6214L18.2293 20.629L18.3231 20.6214C18.4271 20.6039 18.523 20.5577 18.5978 20.4888C18.6726 20.42 18.7228 20.3319 18.7418 20.2361L18.7502 20.1499V17.7502H21.3585L21.4522 17.7435C21.5563 17.726 21.6521 17.6798 21.7269 17.611C21.8017 17.5421 21.852 17.454 21.871 17.3583L21.8793 17.272L21.871 17.1858C21.8519 17.0899 21.8015 17.0016 21.7265 16.9328C21.6515 16.864 21.5555 16.8178 21.4512 16.8005L21.3575 16.7928H18.7502V14.397L18.7418 14.3108C18.723 14.2148 18.6728 14.1265 18.598 14.0575C18.5232 13.9885 18.4273 13.9421 18.3231 13.9246L18.2293 13.9169ZM14.5054 2.89988C14.9138 2.89985 15.3151 2.99799 15.6695 3.18458C16.024 3.37116 16.3193 3.63972 16.5262 3.96363L17.3741 5.29284H19.5314C20.4291 5.29284 21.29 5.62085 21.9249 6.20474C22.5598 6.78863 22.9166 7.58059 22.9168 8.40647V12.7765C21.6573 11.6618 19.977 11.04 18.2293 11.0419C17.7953 11.0419 17.3724 11.0783 16.9606 11.1511C16.7077 10.4319 16.2539 9.78638 15.6445 9.27933C15.035 8.77227 14.2915 8.42146 13.4883 8.26205C12.6851 8.10263 11.8505 8.14021 11.068 8.37101C10.2856 8.60181 9.58283 9.01774 9.03015 9.57712C8.47746 10.1365 8.09427 10.8197 7.91896 11.5582C7.74365 12.2967 7.78239 13.0647 8.03129 13.7851C8.28018 14.5055 8.7305 15.1531 9.33712 15.663C9.94374 16.1729 10.6854 16.5272 11.4877 16.6903C11.3469 18.0714 11.7113 19.4562 12.5231 20.6252H5.46891C4.57104 20.6252 3.70995 20.2971 3.07506 19.713C2.44017 19.1289 2.0835 18.3367 2.0835 17.5106V8.40647C2.0835 7.58043 2.44017 6.78822 3.07506 6.20412C3.70995 5.62003 4.57104 5.29188 5.46891 5.29188H7.63558L8.54704 3.92722C8.75661 3.61309 9.0502 3.35364 9.39979 3.17362C9.74938 2.9936 10.1433 2.89902 10.5439 2.89893L14.5054 2.89988ZM12.5002 9.60438C13.1582 9.60437 13.7995 9.79549 14.3326 10.1505C14.8657 10.5055 15.2634 11.0063 15.4689 11.5814C14.6149 11.9332 13.8491 12.4435 13.2196 13.0804C12.59 13.7173 12.1103 14.467 11.8106 15.2825C11.0629 15.1247 10.4044 14.7193 9.96062 14.1437C9.51679 13.5681 9.3186 12.8624 9.4038 12.161C9.48899 11.4597 9.85161 10.8116 10.4226 10.3403C10.9936 9.86905 11.7331 9.60744 12.5002 9.60534" fill="#A3A3A3"/>
</svg>
