<svg width="24" height="24" viewBox="0 0 24 24" fill="none" xmlns="http://www.w3.org/2000/svg">
<mask id="mask0_589_536" style="mask-type:alpha" maskUnits="userSpaceOnUse" x="0" y="0" width="24" height="24">
<rect width="24" height="24" fill="#D9D9D9"/>
</mask>
<g mask="url(#mask0_589_536)">
<path d="M10.4534 11.9999L14.5265 16.073C14.6649 16.2115 14.7358 16.3855 14.739 16.5951C14.7422 16.8047 14.6713 16.9819 14.5265 17.1268C14.3816 17.2717 14.206 17.3441 13.9996 17.3441C13.7932 17.3441 13.6175 17.2717 13.4727 17.1268L8.97843 12.6326C8.88483 12.539 8.81881 12.4403 8.78036 12.3364C8.74189 12.2326 8.72266 12.1204 8.72266 11.9999C8.72266 11.8794 8.74189 11.7672 8.78036 11.6634C8.81881 11.5595 8.88483 11.4608 8.97843 11.3672L13.4727 6.87301C13.6111 6.73454 13.7851 6.66371 13.9948 6.66051C14.2044 6.65729 14.3816 6.72812 14.5265 6.87301C14.6713 7.01787 14.7438 7.1935 14.7438 7.3999C14.7438 7.6063 14.6713 7.78194 14.5265 7.9268L10.4534 11.9999Z" fill="#35353A"/>
</g>
</svg>
