<svg width="16" height="14" viewBox="0 0 16 14" fill="none" xmlns="http://www.w3.org/2000/svg">
<path d="M7.78787 3.51223L2.66688 8.10162V13.0549C2.66688 13.1831 2.7137 13.3061 2.79704 13.3968C2.88039 13.4875 2.99342 13.5385 3.11129 13.5385L6.22382 13.5297C6.3413 13.5291 6.45377 13.4778 6.53663 13.3872C6.6195 13.2966 6.66601 13.174 6.66601 13.0461V10.1535C6.66601 10.0252 6.71283 9.90222 6.79618 9.81153C6.87952 9.72085 6.99256 9.6699 7.11042 9.6699H8.88806C9.00593 9.6699 9.11897 9.72085 9.20231 9.81153C9.28565 9.90222 9.33247 10.0252 9.33247 10.1535V13.044C9.33229 13.1076 9.34365 13.1707 9.3659 13.2295C9.38815 13.2884 9.42086 13.3419 9.46215 13.3869C9.50343 13.432 9.55249 13.4677 9.60649 13.4921C9.6605 13.5165 9.71841 13.5291 9.77689 13.5291L12.8883 13.5385C13.0062 13.5385 13.1192 13.4875 13.2026 13.3968C13.2859 13.3061 13.3327 13.1831 13.3327 13.0549V8.09829L8.21284 3.51223C8.15265 3.45944 8.07766 3.43065 8.00035 3.43065C7.92304 3.43065 7.84806 3.45944 7.78787 3.51223ZM15.877 6.63156L13.5549 4.54889V0.362678C13.5549 0.26649 13.5198 0.174241 13.4573 0.106226C13.3948 0.0382107 13.31 0 13.2216 0H11.6662C11.5778 0 11.493 0.0382107 11.4305 0.106226C11.368 0.174241 11.3329 0.26649 11.3329 0.362678V2.55718L8.84612 0.330944C8.60748 0.11726 8.30802 0.000427158 7.99897 0.000427158C7.68991 0.000427158 7.39045 0.11726 7.15181 0.330944L0.120963 6.63156C0.0872117 6.66192 0.0592882 6.69921 0.0387875 6.74131C0.0182869 6.78341 0.00561089 6.8295 0.00148382 6.87693C-0.00264326 6.92436 0.00185949 6.97222 0.0147348 7.01776C0.02761 7.0633 0.0486055 7.10563 0.0765215 7.14233L0.7848 8.07925C0.81264 8.11609 0.846883 8.14659 0.88557 8.169C0.924256 8.19142 0.966625 8.20531 1.01025 8.20989C1.05388 8.21447 1.09791 8.20963 1.13982 8.19567C1.18173 8.18171 1.22069 8.15889 1.25449 8.12852L7.78787 2.27308C7.84806 2.22029 7.92304 2.1915 8.00035 2.1915C8.07766 2.1915 8.15265 2.22029 8.21284 2.27308L14.7465 8.12852C14.7802 8.15889 14.8191 8.18174 14.861 8.19575C14.9028 8.20976 14.9468 8.21466 14.9904 8.21017C15.034 8.20568 15.0764 8.19188 15.115 8.16958C15.1537 8.14727 15.188 8.11689 15.2159 8.08016L15.9242 7.14324C15.9521 7.10632 15.973 7.06377 15.9857 7.01803C15.9984 6.9723 16.0027 6.92427 15.9983 6.87672C15.9939 6.82917 15.981 6.78304 15.9601 6.74096C15.9393 6.69889 15.911 6.66171 15.877 6.63156Z" fill="#AEAEAE"/>
</svg>
