<svg width="16" height="16" viewBox="0 0 16 16" fill="none" xmlns="http://www.w3.org/2000/svg">
<path d="M7.21133 6.08484C6.76263 6.41779 6.21907 6.59828 5.66033 6.59984C5.07883 6.59984 4.54533 6.40484 4.10883 6.08484C3.73383 6.39734 3.35983 6.84484 3.05383 7.39634C2.34233 8.67784 2.26383 9.99234 2.87883 10.3333C3.15283 10.4893 3.44183 10.3723 3.73983 10.0853C3.68401 10.3945 3.65607 10.7081 3.65633 11.0223C3.65633 12.4913 4.22633 13.6783 4.92783 13.6783C5.35083 13.6783 5.56033 13.2458 5.66083 12.5843C5.76083 13.2413 5.97083 13.6783 6.39083 13.6783C7.08933 13.6783 7.66383 12.4908 7.66383 11.0223C7.66383 10.6923 7.63283 10.3773 7.57983 10.0858C7.87983 10.3733 8.16783 10.4923 8.44283 10.3343C9.05633 9.99334 8.97683 8.67934 8.26583 7.39734C7.96083 6.84534 7.58583 6.39834 7.21083 6.08584L7.21133 6.08484ZM5.65983 6.09984C5.94089 6.09974 6.21918 6.04428 6.47881 5.93663C6.73844 5.82898 6.97432 5.67125 7.17299 5.47244C7.37167 5.27363 7.52923 5.03764 7.6367 4.77793C7.74417 4.51823 7.79943 4.2399 7.79933 3.95884C7.79923 3.67777 7.74377 3.39948 7.63612 3.13986C7.52848 2.88023 7.37074 2.64434 7.17193 2.44567C6.97312 2.247 6.73713 2.08943 6.47742 1.98197C6.21772 1.8745 5.93939 1.81924 5.65833 1.81934C5.09057 1.81953 4.54614 2.04527 4.14481 2.44688C3.74348 2.84849 3.51813 3.39307 3.51833 3.96084C3.51853 4.5286 3.74426 5.07303 4.14587 5.47436C4.54748 5.87568 5.09207 6.10103 5.65983 6.10084V6.09984ZM10.9933 8.83484C11.7473 8.83484 12.3593 8.22284 12.3593 7.46784C12.3593 6.71284 11.7463 6.09984 10.9928 6.09984C10.6301 6.09997 10.2822 6.24414 10.0257 6.50066C9.76913 6.75718 9.62496 7.10506 9.62483 7.46784C9.62509 7.83061 9.76939 8.17844 10.026 8.43486C10.2826 8.69129 10.6306 8.83484 10.9933 8.83484ZM12.6583 9.66334C12.4633 9.31084 12.2243 9.02484 11.9843 8.82484C11.7043 9.02984 11.3643 9.15484 10.9928 9.15484C10.6213 9.15484 10.2798 9.02984 10.0013 8.82484C9.76133 9.02484 9.52233 9.31084 9.32633 9.66334C8.87133 10.4823 8.82133 11.3223 9.21433 11.5403C9.38933 11.6403 9.57433 11.5653 9.76433 11.3823C9.72987 11.58 9.71248 11.7802 9.71233 11.9808C9.71233 12.9208 10.0763 13.6793 10.5248 13.6793C10.7948 13.6793 10.9298 13.4028 10.9938 12.9803C11.0578 13.4003 11.1918 13.6788 11.4608 13.6788C11.9073 13.6788 12.2743 12.9198 12.2743 11.9808C12.2743 11.7708 12.2543 11.5688 12.2203 11.3828C12.4118 11.5663 12.5963 11.6428 12.7723 11.5413C13.1633 11.3243 13.1123 10.4838 12.6583 9.66484V9.66334Z" fill="#A3A3A3"/>
</svg>
