<svg width="13" height="16" viewBox="0 0 13 16" fill="none" xmlns="http://www.w3.org/2000/svg">
<path d="M1.6 16C1.16 16 0.783466 15.8435 0.4704 15.5304C0.157333 15.2173 0.000533333 14.8405 0 14.4V1.6C0 1.16 0.1568 0.783467 0.4704 0.4704C0.784 0.157333 1.16053 0.000533333 1.6 0H11.2C11.64 0 12.0168 0.1568 12.3304 0.4704C12.644 0.784 12.8005 1.16053 12.8 1.6V14.4C12.8 14.84 12.6435 15.2168 12.3304 15.5304C12.0173 15.844 11.6405 16.0005 11.2 16H1.6ZM1.6 14.4H11.2V1.6H9.6V7.2L7.6 6L5.6 7.2V1.6H1.6V14.4Z" fill="#AEAEAE"/>
</svg>
