<svg width="16" height="16" viewBox="0 0 16 16" fill="none" xmlns="http://www.w3.org/2000/svg">
<path fill-rule="evenodd" clip-rule="evenodd" d="M4.1805 1.40792C3.6405 1.47859 3.35517 1.60859 3.15117 1.80792C2.94784 2.00792 2.81517 2.28792 2.7425 2.81659C2.66784 3.36125 2.6665 4.08259 2.6665 5.11659V10.8299C2.93049 10.6497 3.22339 10.516 3.5325 10.4346C3.8845 10.3419 4.29517 10.3419 4.89717 10.3426H13.3332V5.11725C13.3332 4.08259 13.3318 3.36125 13.2572 2.81659C13.1845 2.28792 13.0518 2.00792 12.8485 1.80792C12.6445 1.60859 12.3592 1.47859 11.8192 1.40792C11.2632 1.33459 10.5272 1.33325 9.47117 1.33325H6.5285C5.4725 1.33325 4.7365 1.33459 4.1805 1.40792ZM4.50584 4.39658C4.50584 4.09792 4.7525 3.85592 5.05717 3.85592H10.9425C11.0871 3.85467 11.2264 3.91081 11.3297 4.01202C11.4331 4.11323 11.4921 4.25128 11.4938 4.39592C11.4923 4.54067 11.4333 4.67889 11.33 4.78025C11.2266 4.88161 11.0873 4.93783 10.9425 4.93659H5.05717C4.91253 4.93783 4.77329 4.8817 4.66995 4.78048C4.56661 4.67927 4.5076 4.54122 4.50584 4.39658ZM5.05717 6.37858C4.91253 6.37734 4.77329 6.43347 4.66995 6.53469C4.56661 6.6359 4.5076 6.77395 4.50584 6.91859C4.50584 7.21725 4.7525 7.45925 5.05717 7.45925H8.73517C8.87993 7.46067 9.01934 7.40462 9.12283 7.30339C9.22631 7.20215 9.28541 7.06401 9.28717 6.91925C9.28559 6.77438 9.22656 6.63606 9.12306 6.53469C9.01956 6.43331 8.88004 6.37716 8.73517 6.37858H5.05717Z" fill="#AEAEAE"/>
<path d="M4.98186 11.4233H13.3332C13.3312 12.1767 13.3192 12.7393 13.2579 13.1833C13.1852 13.712 13.0525 13.992 12.8492 14.192C12.6452 14.3913 12.3599 14.5213 11.8199 14.592C11.2639 14.6653 10.5279 14.6667 9.47186 14.6667H6.52852C5.47252 14.6667 4.73652 14.6653 4.18052 14.5927C3.64052 14.5213 3.35519 14.3913 3.15119 14.192C2.94786 13.992 2.81519 13.712 2.74252 13.1833C2.71519 12.9833 2.69719 12.7587 2.68652 12.5033C2.7779 12.2536 2.92863 12.0299 3.12571 11.8514C3.3228 11.6729 3.56034 11.545 3.81786 11.4787C4.01119 11.428 4.26252 11.4233 4.98186 11.4233Z" fill="#AEAEAE"/>
</svg>
