<svg width="40" height="42" viewBox="0 0 40 42" fill="none" xmlns="http://www.w3.org/2000/svg">
<path d="M14.6038 0.10791H14.67C15.0687 0.10791 15.4511 0.274841 15.733 0.57198C16.0149 0.869119 16.1733 1.27213 16.1733 1.69234C16.1733 2.11256 16.0149 2.51557 15.733 2.81271C15.4511 3.10985 15.0687 3.27678 14.67 3.27678C12.401 3.27678 10.7874 3.27678 9.52664 3.38663C8.2839 3.49226 7.5122 3.69718 6.90085 4.02463C5.67541 4.68283 4.67907 5.73293 4.05457 7.0245C3.74389 7.66883 3.55146 8.48217 3.44924 9.79197C3.34701 11.1229 3.34501 12.8214 3.34501 15.2129C3.34501 15.6331 3.18662 16.0361 2.9047 16.3332C2.62277 16.6304 2.2404 16.7973 1.84169 16.7973C1.44299 16.7973 1.06062 16.6304 0.778689 16.3332C0.496763 16.0361 0.338379 15.6331 0.338379 15.2129V15.1431C0.338379 12.8362 0.338379 11.0067 0.452631 9.53424C0.568887 8.02586 0.813426 6.75197 1.37466 5.58794C2.28803 3.69927 3.74542 2.16397 5.53784 1.20223C6.64027 0.608591 7.85094 0.350857 9.2821 0.228327C10.6792 0.10791 12.415 0.10791 14.6038 0.10791ZM30.2383 3.38663C28.9755 3.27889 27.362 3.27678 25.093 3.27678C24.6943 3.27678 24.3119 3.10985 24.03 2.81271C23.748 2.51557 23.5896 2.11256 23.5896 1.69234C23.5896 1.27213 23.748 0.869119 24.03 0.57198C24.3119 0.274841 24.6943 0.10791 25.093 0.10791H25.1591C27.3479 0.10791 29.0838 0.10791 30.4808 0.228327C31.912 0.350857 33.1207 0.608591 34.2271 1.20011C36.0183 2.16312 37.4743 3.69912 38.3863 5.58794C38.9495 6.74986 39.194 8.02586 39.3103 9.53424C39.4246 11.0067 39.4246 12.8362 39.4246 15.1431V15.2129C39.4246 15.6331 39.2662 16.0361 38.9842 16.3332C38.7023 16.6304 38.3199 16.7973 37.9212 16.7973C37.5225 16.7973 37.1402 16.6304 36.8582 16.3332C36.5763 16.0361 36.4179 15.6331 36.4179 15.2129C36.4179 12.8214 36.4179 11.1208 36.3137 9.79197C36.2135 8.48217 36.019 7.66883 35.7084 7.0245C35.0839 5.73293 34.0875 4.68283 32.8621 4.02463C32.2507 3.69718 31.481 3.49437 30.2383 3.38663ZM11.8638 10.6708C12.2625 10.6708 12.6449 10.8377 12.9268 11.1349C13.2087 11.432 13.3671 11.835 13.3671 12.2552V15.4241C13.3671 15.8443 13.2087 16.2473 12.9268 16.5445C12.6449 16.8416 12.2625 17.0085 11.8638 17.0085C11.4651 17.0085 11.0827 16.8416 10.8008 16.5445C10.5189 16.2473 10.3605 15.8443 10.3605 15.4241V12.2552C10.3605 11.835 10.5189 11.432 10.8008 11.1349C11.0827 10.8377 11.4651 10.6708 11.8638 10.6708ZM27.8991 10.6708C28.2978 10.6708 28.6802 10.8377 28.9621 11.1349C29.2441 11.432 29.4025 11.835 29.4025 12.2552V15.4241C29.4025 15.8443 29.2441 16.2473 28.9621 16.5445C28.6802 16.8416 28.2978 17.0085 27.8991 17.0085C27.5004 17.0085 27.1181 16.8416 26.8361 16.5445C26.5542 16.2473 26.3958 15.8443 26.3958 15.4241V12.2552C26.3958 11.835 26.5542 11.432 26.8361 11.1349C27.1181 10.8377 27.5004 10.6708 27.8991 10.6708ZM19.8815 14.3678C20.2802 14.3678 20.6625 14.5348 20.9445 14.8319C21.2264 15.129 21.3848 15.532 21.3848 15.9523V24.4026C21.3848 24.8228 21.2264 25.2258 20.9445 25.5229C20.6625 25.8201 20.2802 25.987 19.8815 25.987H17.877C17.4783 25.987 17.096 25.8201 16.814 25.5229C16.5321 25.2258 16.3737 24.8228 16.3737 24.4026C16.3737 23.9824 16.5321 23.5793 16.814 23.2822C17.096 22.9851 17.4783 22.8181 17.877 22.8181H18.3782V15.9523C18.3782 15.532 18.5365 15.129 18.8185 14.8319C19.1004 14.5348 19.4828 14.3678 19.8815 14.3678ZM1.84169 24.6138C2.2404 24.6138 2.62277 24.7808 2.9047 25.0779C3.18662 25.375 3.34501 25.778 3.34501 26.1983C3.34501 28.5918 3.34501 30.2903 3.44924 31.6191C3.54946 32.9289 3.74389 33.7423 4.05457 34.3866C4.67907 35.6782 5.67541 36.7283 6.90085 37.3865C7.5122 37.7139 8.2839 37.9167 9.52664 38.0245C10.7894 38.1322 12.401 38.1343 14.67 38.1343C15.0687 38.1343 15.4511 38.3013 15.733 38.5984C16.0149 38.8955 16.1733 39.2986 16.1733 39.7188C16.1733 40.139 16.0149 40.542 15.733 40.8391C15.4511 41.1363 15.0687 41.3032 14.67 41.3032H14.6038C12.415 41.3032 10.6792 41.3032 9.2821 41.1828C7.85094 41.0603 6.64228 40.8025 5.53784 40.211C3.74617 39.2489 2.28951 37.7136 1.37667 35.8253C0.813426 34.6591 0.568887 33.3853 0.452631 31.8769C0.338379 30.4044 0.338379 28.5749 0.338379 26.268V26.1983C0.338379 25.778 0.496763 25.375 0.778689 25.0779C1.06062 24.7808 1.44299 24.6138 1.84169 24.6138ZM37.9212 24.6138C38.3199 24.6138 38.7023 24.7808 38.9842 25.0779C39.2662 25.375 39.4246 25.778 39.4246 26.1983V26.268C39.4246 28.5749 39.4246 30.4044 39.3103 31.8769C39.194 33.3853 38.9495 34.6591 38.3883 35.8253C37.4751 37.7129 36.0185 39.2473 34.2271 40.2089C33.1207 40.8025 31.912 41.0603 30.4808 41.1828C29.0838 41.3032 27.3479 41.3032 25.1591 41.3032H25.093C24.6943 41.3032 24.3119 41.1363 24.03 40.8391C23.748 40.542 23.5896 40.139 23.5896 39.7188C23.5896 39.2986 23.748 38.8955 24.03 38.5984C24.3119 38.3013 24.6943 38.1343 25.093 38.1343C27.364 38.1343 28.9755 38.1343 30.2363 38.0245C31.479 37.9189 32.2507 37.7139 32.8621 37.3865C34.0875 36.7283 35.0839 35.6782 35.7084 34.3866C36.019 33.7423 36.2115 32.9289 36.3137 31.6191C36.4159 30.2882 36.4179 28.5897 36.4179 26.1983C36.4179 25.778 36.5763 25.375 36.8582 25.0779C37.1402 24.7808 37.5225 24.6138 37.9212 24.6138ZM12.8059 29.0925C13.0877 28.7958 13.4698 28.6291 13.8682 28.6291C14.2666 28.6291 14.6487 28.7958 14.9305 29.0925C16.0891 30.3115 17.9252 31.0044 19.8815 31.0044C21.8378 31.0044 23.6738 30.3115 24.8324 29.0925C24.97 28.9368 25.136 28.812 25.3204 28.7254C25.5048 28.6388 25.7039 28.5922 25.9057 28.5885C26.1076 28.5847 26.3081 28.6238 26.4952 28.7035C26.6824 28.7832 26.8525 28.9018 26.9952 29.0523C27.138 29.2027 27.2505 29.382 27.3261 29.5792C27.4017 29.7765 27.4389 29.9879 27.4353 30.2006C27.4317 30.4133 27.3876 30.6231 27.3054 30.8175C27.2232 31.0119 27.1048 31.1868 26.9571 31.3318C25.109 33.2817 22.4351 34.1733 19.8815 34.1733C17.3278 34.1733 14.6539 33.2817 12.8059 31.3318C12.5243 31.0348 12.3662 30.632 12.3662 30.2122C12.3662 29.7923 12.5243 29.3896 12.8059 29.0925Z" fill="white"/>
</svg>
