<svg width="16" height="18" viewBox="0 0 16 18" fill="none" xmlns="http://www.w3.org/2000/svg">
<path d="M3.3077 17.5C2.81058 17.5 2.38502 17.323 2.03102 16.969C1.67701 16.615 1.5 16.1894 1.5 15.6923V3.00005H1.25C1.0375 3.00005 0.859375 2.92814 0.715625 2.78433C0.571875 2.64053 0.5 2.46233 0.5 2.24973C0.5 2.03715 0.571875 1.85906 0.715625 1.71548C0.859375 1.57188 1.0375 1.50008 1.25 1.50008H4.99997C4.99997 1.25521 5.08619 1.04656 5.25863 0.874129C5.43106 0.701695 5.63971 0.615479 5.88457 0.615479H10.1154C10.3602 0.615479 10.5689 0.701695 10.7413 0.874129C10.9138 1.04656 11 1.25521 11 1.50008H14.75C14.9625 1.50008 15.1406 1.57199 15.2843 1.7158C15.4281 1.85962 15.5 2.03782 15.5 2.2504C15.5 2.463 15.4281 2.6411 15.2843 2.78468C15.1406 2.92826 14.9625 3.00005 14.75 3.00005H14.5V15.6923C14.5 16.1894 14.3229 16.615 13.9689 16.969C13.6149 17.323 13.1894 17.5 12.6922 17.5H3.3077ZM13 3.00005H2.99997V15.6923C2.99997 15.7821 3.02882 15.8558 3.08652 15.9135C3.14422 15.9712 3.21795 16.0001 3.3077 16.0001H12.6922C12.782 16.0001 12.8557 15.9712 12.9134 15.9135C12.9711 15.8558 13 15.7821 13 15.6923V3.00005ZM6.15417 14.0001C6.36676 14.0001 6.54484 13.9282 6.68842 13.7844C6.83202 13.6407 6.90382 13.4626 6.90382 13.2501V5.75003C6.90382 5.53755 6.83192 5.35943 6.6881 5.21568C6.54428 5.07193 6.36608 5.00005 6.1535 5.00005C5.9409 5.00005 5.76281 5.07193 5.61922 5.21568C5.47564 5.35943 5.40385 5.53755 5.40385 5.75003V13.2501C5.40385 13.4626 5.47576 13.6407 5.61958 13.7844C5.76338 13.9282 5.94157 14.0001 6.15417 14.0001ZM9.84645 14.0001C10.059 14.0001 10.2371 13.9282 10.3807 13.7844C10.5243 13.6407 10.5961 13.4626 10.5961 13.2501V5.75003C10.5961 5.53755 10.5242 5.35943 10.3804 5.21568C10.2366 5.07193 10.0584 5.00005 9.84577 5.00005C9.63319 5.00005 9.45511 5.07193 9.31152 5.21568C9.16792 5.35943 9.09613 5.53755 9.09613 5.75003V13.2501C9.09613 13.4626 9.16803 13.6407 9.31185 13.7844C9.45567 13.9282 9.63387 14.0001 9.84645 14.0001Z" fill="#35353A"/>
</svg>
