<svg width="25" height="26" viewBox="0 0 25 26" fill="none" xmlns="http://www.w3.org/2000/svg">
<path d="M24.6094 13C24.6094 19.6893 19.1874 25.1094 12.5 25.1094C5.81265 25.1094 0.390625 19.6893 0.390625 13C0.390625 6.3146 5.81265 0.890625 12.5 0.890625C19.1874 0.890625 24.6094 6.3146 24.6094 13ZM12.5 15.4414C11.2595 15.4414 10.2539 16.447 10.2539 17.6875C10.2539 18.928 11.2595 19.9336 12.5 19.9336C13.7405 19.9336 14.7461 18.928 14.7461 17.6875C14.7461 16.447 13.7405 15.4414 12.5 15.4414ZM10.3675 7.36787L10.7297 14.0085C10.7467 14.3192 11.0036 14.5625 11.3148 14.5625H13.6852C13.9964 14.5625 14.2533 14.3192 14.2703 14.0085L14.6325 7.36787C14.6508 7.03223 14.3835 6.75 14.0474 6.75H10.9525C10.6164 6.75 10.3492 7.03223 10.3675 7.36787Z" fill="white"/>
</svg>
