<svg width="24" height="24" viewBox="0 0 24 24" fill="none" xmlns="http://www.w3.org/2000/svg">
<path d="M6.66625 22.7676H17.3334C19.4128 22.7676 20.4474 21.7129 20.4474 19.6236V10.5032C20.4474 9.20722 20.3068 8.64493 19.5032 7.82122L13.9584 2.18636C13.1955 1.40251 12.5724 1.23193 11.4375 1.23193H6.66625C4.5971 1.23193 3.55225 2.2965 3.55225 4.38622V19.6236C3.55225 21.7228 4.5971 22.7676 6.66625 22.7676ZM6.74639 21.1506C5.71182 21.1506 5.16925 20.5978 5.16925 19.5936V4.41622C5.16925 3.42193 5.71182 2.84893 6.75667 2.84893H11.2164V8.68522C11.2164 9.95079 11.8592 10.5735 13.1047 10.5735H18.8304V19.5936C18.8304 20.5978 18.2977 21.1506 17.2532 21.1506H6.74639ZM13.2855 9.05636C12.8938 9.05636 12.7327 8.89608 12.7327 8.49408V3.16051L18.5184 9.05679L13.2855 9.05636ZM15.6962 13.3356H8.07196C7.71067 13.3356 7.44967 13.6069 7.44967 13.9485C7.44967 14.2999 7.7111 14.5712 8.07239 14.5712H15.6962C15.7784 14.5726 15.86 14.5574 15.9361 14.5265C16.0123 14.4957 16.0814 14.4499 16.1395 14.3918C16.1976 14.3337 16.2435 14.2645 16.2743 14.1884C16.3051 14.1122 16.3203 14.0306 16.319 13.9485C16.319 13.6069 16.0477 13.3356 15.6962 13.3356ZM15.6962 16.8414H8.07196C7.71067 16.8414 7.44967 17.1225 7.44967 17.4739C7.44967 17.8155 7.7111 18.0769 8.07239 18.0769H15.6962C16.0477 18.0769 16.319 17.8155 16.319 17.4739C16.319 17.1225 16.0477 16.8414 15.6962 16.8414Z" fill="#A3A3A3"/>
</svg>
