<svg width="25" height="24" viewBox="0 0 25 24" fill="none" xmlns="http://www.w3.org/2000/svg">
<path d="M12.5 17C13.0304 17 13.5391 16.7893 13.9142 16.4142C14.2893 16.0391 14.5 15.5304 14.5 15C14.5 14.4696 14.2893 13.9609 13.9142 13.5858C13.5391 13.2107 13.0304 13 12.5 13C11.9696 13 11.4609 13.2107 11.0858 13.5858C10.7107 13.9609 10.5 14.4696 10.5 15C10.5 15.5304 10.7107 16.0391 11.0858 16.4142C11.4609 16.7893 11.9696 17 12.5 17ZM18.5 8C19.0304 8 19.5391 8.21071 19.9142 8.58579C20.2893 8.96086 20.5 9.46957 20.5 10V20C20.5 20.5304 20.2893 21.0391 19.9142 21.4142C19.5391 21.7893 19.0304 22 18.5 22H6.5C5.96957 22 5.46086 21.7893 5.08579 21.4142C4.71071 21.0391 4.5 20.5304 4.5 20V10C4.5 9.46957 4.71071 8.96086 5.08579 8.58579C5.46086 8.21071 5.96957 8 6.5 8H7.5V6C7.5 4.67392 8.02678 3.40215 8.96447 2.46447C9.90215 1.52678 11.1739 1 12.5 1C13.1566 1 13.8068 1.12933 14.4134 1.3806C15.02 1.63188 15.5712 2.00017 16.0355 2.46447C16.4998 2.92876 16.8681 3.47995 17.1194 4.08658C17.3707 4.69321 17.5 5.34339 17.5 6V8H18.5ZM12.5 3C11.7044 3 10.9413 3.31607 10.3787 3.87868C9.81607 4.44129 9.5 5.20435 9.5 6V8H15.5V6C15.5 5.20435 15.1839 4.44129 14.6213 3.87868C14.0587 3.31607 13.2956 3 12.5 3Z" fill="#848484"/>
</svg>
