<svg width="16" height="16" viewBox="0 0 16 16" fill="none" xmlns="http://www.w3.org/2000/svg">
<path d="M7.99996 2.5C7.72934 2.5 7.48184 2.73 7.49996 3L7.74996 9.75C7.74996 9.8163 7.7763 9.87989 7.82318 9.92678C7.87007 9.97366 7.93366 10 7.99996 10C8.06627 10 8.12985 9.97366 8.17674 9.92678C8.22362 9.87989 8.24996 9.8163 8.24996 9.75L8.49996 3C8.51809 2.73 8.27059 2.5 7.99996 2.5Z" stroke="#A3A3A3" stroke-linecap="round" stroke-linejoin="round"/>
<path d="M8 13.5C8.27614 13.5 8.5 13.2761 8.5 13C8.5 12.7239 8.27614 12.5 8 12.5C7.72386 12.5 7.5 12.7239 7.5 13C7.5 13.2761 7.72386 13.5 8 13.5Z" stroke="#A3A3A3" stroke-linecap="round" stroke-linejoin="round"/>
</svg>
