<svg width="16" height="17" viewBox="0 0 16 17" fill="none" xmlns="http://www.w3.org/2000/svg">
<g clip-path="url(#clip0_515_72)">
<path d="M16 8.52346C16.0081 12.9312 12.4135 16.5355 8.0058 16.5386C6.10209 16.5399 4.35345 15.8763 2.97929 14.7672C2.62197 14.4789 2.59526 13.9433 2.91997 13.6186L3.28342 13.2552C3.56113 12.9775 4.00448 12.9471 4.31216 13.1912C5.32458 13.9946 6.60583 14.4741 7.99999 14.4741C11.2808 14.4741 13.9355 11.8189 13.9355 8.53859C13.9355 5.25778 11.2803 2.60309 7.99999 2.60309C6.42535 2.60309 4.99519 3.215 3.93329 4.21381L5.57051 5.85104C5.89567 6.1762 5.66538 6.73213 5.20558 6.73213H0.516129C0.231064 6.73213 0 6.50107 0 6.216V1.52654C0 1.06674 0.555935 0.836446 0.881096 1.16158L2.47374 2.75422C3.90996 1.38167 5.85651 0.538574 7.99999 0.538574C12.4132 0.538574 15.9918 4.11213 16 8.52346ZM10.1641 11.0649L10.481 10.6575C10.7435 10.3199 10.6827 9.83353 10.3452 9.57104L9.03225 8.54985V5.18374C9.03225 4.75616 8.68564 4.40955 8.25806 4.40955H7.74193C7.31435 4.40955 6.96774 4.75616 6.96774 5.18374V9.55959L9.0777 11.2007C9.41522 11.4632 9.9016 11.4024 10.1641 11.0649Z" fill="#AEAEAE"/>
</g>
<defs>
<clipPath id="clip0_515_72">
<rect width="16" height="16" fill="white" transform="translate(0 0.538574)"/>
</clipPath>
</defs>
</svg>
