<svg width="23" height="16" viewBox="0 0 23 16" fill="none" xmlns="http://www.w3.org/2000/svg">
<path fill-rule="evenodd" clip-rule="evenodd" d="M7.27219 8C7.27219 10.1333 9.16406 11.8691 11.4998 11.8691C13.825 11.8691 15.7169 10.1333 15.7169 8C15.7169 5.85697 13.825 4.12121 11.4998 4.12121C9.16406 4.12121 7.27219 5.85697 7.27219 8ZM17.7145 2.04606C19.5641 3.36485 21.1389 5.29455 22.2698 7.70909C22.3543 7.89333 22.3543 8.10667 22.2698 8.28121C20.008 13.1103 15.9811 16 11.4998 16H11.4893C7.01854 16 2.99171 13.1103 0.729919 8.28121C0.645366 8.10667 0.645366 7.89333 0.729919 7.70909C2.99171 2.88 7.01854 0 11.4893 0H11.4998C13.7405 0 15.8649 0.717576 17.7145 2.04606ZM11.5011 10.4124C12.9491 10.4124 14.1328 9.32635 14.1328 7.99787C14.1328 6.65968 12.9491 5.57362 11.5011 5.57362C11.3743 5.57362 11.2474 5.58332 11.1312 5.60271C11.0889 6.66938 10.1377 7.52272 8.96452 7.52272H8.91167C8.87997 7.67787 8.85883 7.83302 8.85883 7.99787C8.85883 9.32635 10.0426 10.4124 11.5011 10.4124Z" fill="#848484"/>
</svg>
