<svg width="16" height="17" viewBox="0 0 16 17" fill="none" xmlns="http://www.w3.org/2000/svg">
<path d="M4.8 8.53848C6.3475 8.53848 7.6 7.28598 7.6 5.73848C7.6 4.19098 6.3475 2.93848 4.8 2.93848C3.2525 2.93848 2 4.19098 2 5.73848C2 7.28598 3.2525 8.53848 4.8 8.53848ZM6.72 9.33848H6.5125C5.9925 9.58848 5.415 9.73848 4.8 9.73848C4.185 9.73848 3.61 9.58848 3.0875 9.33848H2.88C1.29 9.33848 0 10.6285 0 12.2185V12.9385C0 13.601 0.5375 14.1385 1.2 14.1385H8.4C9.0625 14.1385 9.6 13.601 9.6 12.9385V12.2185C9.6 10.6285 8.31 9.33848 6.72 9.33848ZM12 8.53848C13.325 8.53848 14.4 7.46348 14.4 6.13848C14.4 4.81348 13.325 3.73848 12 3.73848C10.675 3.73848 9.6 4.81348 9.6 6.13848C9.6 7.46348 10.675 8.53848 12 8.53848ZM13.2 9.33848H13.105C12.7575 9.45848 12.39 9.53848 12 9.53848C11.61 9.53848 11.2425 9.45848 10.895 9.33848H10.8C10.29 9.33848 9.82 9.48598 9.4075 9.72348C10.0175 10.381 10.4 11.2535 10.4 12.2185V13.1785C10.4 13.2335 10.3875 13.286 10.385 13.3385H14.8C15.4625 13.3385 16 12.801 16 12.1385C16 10.591 14.7475 9.33848 13.2 9.33848Z" fill="#AEAEAE"/>
</svg>
