<svg width="21" height="22" viewBox="0 0 21 22" fill="none" xmlns="http://www.w3.org/2000/svg">
<path fill-rule="evenodd" clip-rule="evenodd" d="M10.5 2.25C5.66753 2.25 1.75 6.16753 1.75 11C1.75 15.8324 5.66753 19.75 10.5 19.75C15.3324 19.75 19.25 15.8324 19.25 11C19.25 6.16753 15.3325 2.25 10.5 2.25ZM10.5 18C6.64021 18 3.50001 14.8598 3.50001 11C3.50001 7.14017 6.64017 4.00001 10.5 4.00001C14.3598 4.00001 17.5 7.14017 17.5 11C17.5 14.8598 14.3598 18 10.5 18ZM13.795 7.87382L15.0323 9.11114L9.625 14.5411L6.38136 11.2975L7.61864 10.0602L9.625 12.0665L13.795 7.87382Z" fill="white"/>
</svg>
